<svg width="113" height="62" viewBox="0 0 113 62" fill="none" xmlns="http://www.w3.org/2000/svg">
<path d="M62.5505 10C64.9566 7 64.355 4.6 60.837 1C60.0846 3.25 56.1674 5.5 59.0361 10L60.837 7L62.5505 10Z" fill="#070707" stroke="#070707"/>
<path d="M6.97656 16.8438C7.63281 16.1094 8.46875 15.5352 9.48438 15.1211C10.5 14.6992 11.5742 14.4883 12.707 14.4883C15.793 14.4883 18.0586 15.6211 19.5039 17.8867C20.3555 19.2617 20.7812 20.8867 20.7812 22.7617C20.7812 24.6602 20.3398 26.3047 19.457 27.6953C18.5195 29.1953 17.2539 30.2188 15.6602 30.7656C14.8086 31.0625 13.8125 31.2109 12.6719 31.2109C11.5391 31.2109 10.4609 30.9961 9.4375 30.5664C8.41406 30.1289 7.57422 29.5312 6.91797 28.7734C5.58203 27.2031 4.91406 25.1992 4.91406 22.7617C4.91406 20.3555 5.60156 18.3828 6.97656 16.8438ZM16.0117 17.0195C15.1367 16.4102 14.0977 16.1055 12.8945 16.1055C11.6992 16.1055 10.6602 16.3984 9.77734 16.9844C8.03516 18.1484 7.16406 20.0742 7.16406 22.7617C7.16406 25.4883 8.02734 27.4492 9.75391 28.6445C10.6289 29.2539 11.5938 29.5586 12.6484 29.5586C14.5938 29.5586 16.0781 28.8789 17.1016 27.5195C18.0781 26.2148 18.5664 24.6289 18.5664 22.7617C18.5664 20.1289 17.7148 18.2148 16.0117 17.0195ZM40.2297 14.6992V31H38.1086L30.3391 18.7891V31H28.218V14.6992H30.3391L38.1086 26.9219V14.6992H40.2297ZM49.2602 31V14.6992H51.3812V29.3594H58.5766V31H49.2602ZM68.0172 14.6992V31H65.8961V14.6992H68.0172ZM89.0594 14.6992V31H86.9383L79.1687 18.7891V31H77.0477V14.6992H79.1687L86.9383 26.9219V14.6992H89.0594ZM100.211 23.4531V29.3594H107.406V31H98.0898V14.6992H107.406V16.3281H100.211V21.8125H105.109V23.4531H100.211ZM14.9898 54.0352C15.2086 54.1914 15.4078 54.3438 15.5875 54.4922C15.775 54.6406 15.9859 54.7812 16.2203 54.9141C16.4547 55.0391 16.6969 55.1484 16.9469 55.2422C17.4938 55.4609 18.107 55.5703 18.7867 55.5703C19.9273 55.5703 20.7125 55.293 21.1422 54.7383C21.5094 54.2617 21.693 53.793 21.693 53.332C21.693 52.8633 21.6461 52.4961 21.5523 52.2305C21.3727 51.7695 21.0133 51.3359 20.4742 50.9297C20.2477 50.7734 19.9781 50.6055 19.6656 50.4258L17.7438 49.4766C17.025 49.0859 16.4781 48.707 16.1031 48.3398C15.7281 47.9727 15.4469 47.6328 15.2594 47.3203C14.8453 46.625 14.6383 45.7227 14.6383 44.6133C14.6383 43.5039 15.0406 42.5391 15.8453 41.7188C16.65 40.8984 17.6969 40.4883 18.9859 40.4883C19.8063 40.4883 20.5406 40.5938 21.1891 40.8047C21.8453 41.0156 22.3648 41.2695 22.7477 41.5664L22.3023 43.1836C21.3727 42.4648 20.318 42.1055 19.1383 42.1055C18.3961 42.1055 17.8141 42.3516 17.3922 42.8438C16.9781 43.3359 16.7711 43.9688 16.7711 44.7422C16.7711 45.0938 16.8297 45.4141 16.9469 45.7031C17.1422 46.2188 17.5484 46.6797 18.1656 47.0859C18.4078 47.2578 18.7438 47.4375 19.1734 47.625L21.0133 48.5625C21.3414 48.7422 21.6305 48.9219 21.8805 49.1016C22.1383 49.2734 22.3922 49.4844 22.6422 49.7344C23.4313 50.5234 23.8258 51.543 23.8258 52.793C23.8258 54.0352 23.4 55.082 22.5484 55.9336C21.6969 56.7852 20.5875 57.2109 19.2203 57.2109C17.7203 57.2109 16.4859 56.9453 15.5172 56.4141C14.9938 56.1328 14.5797 55.8867 14.275 55.6758L14.9898 54.0352ZM30.4305 40.6992H42.9578V42.3281H37.7547V57H35.6336V42.3281H30.4305V40.6992ZM51.0273 42.8438C51.6836 42.1094 52.5195 41.5352 53.5352 41.1211C54.5508 40.6992 55.625 40.4883 56.7578 40.4883C59.8438 40.4883 62.1094 41.6211 63.5547 43.8867C64.4062 45.2617 64.832 46.8867 64.832 48.7617C64.832 50.6602 64.3906 52.3047 63.5078 53.6953C62.5703 55.1953 61.3047 56.2188 59.7109 56.7656C58.8594 57.0625 57.8633 57.2109 56.7227 57.2109C55.5898 57.2109 54.5117 56.9961 53.4883 56.5664C52.4648 56.1289 51.625 55.5312 50.9688 54.7734C49.6328 53.2031 48.9648 51.1992 48.9648 48.7617C48.9648 46.3555 49.6523 44.3828 51.0273 42.8438ZM60.0625 43.0195C59.1875 42.4102 58.1484 42.1055 56.9453 42.1055C55.75 42.1055 54.7109 42.3984 53.8281 42.9844C52.0859 44.1484 51.2148 46.0742 51.2148 48.7617C51.2148 51.4883 52.0781 53.4492 53.8047 54.6445C54.6797 55.2539 55.6445 55.5586 56.6992 55.5586C58.6445 55.5586 60.1289 54.8789 61.1523 53.5195C62.1289 52.2148 62.6172 50.6289 62.6172 48.7617C62.6172 46.1289 61.7656 44.2148 60.0625 43.0195ZM82.8039 57H80.4484L74.3898 49.6406V57H72.2688V40.9219C73.7297 40.6328 74.9797 40.4883 76.0188 40.4883C77.8313 40.4883 79.2492 40.9062 80.2727 41.7422C81.2961 42.5703 81.8078 43.6289 81.8078 44.918C81.8078 46.207 81.3469 47.2773 80.425 48.1289C79.5031 48.9805 78.2648 49.4727 76.7102 49.6055L82.8039 57ZM75.9133 42.1172C75.2883 42.1172 74.7805 42.1875 74.3898 42.3281V48H74.6828C77.9328 48 79.5578 47 79.5578 45C79.5578 44.1484 79.1945 43.4531 78.468 42.9141C77.7336 42.3828 76.882 42.1172 75.9133 42.1172ZM91.4477 49.4531V55.3594H98.643V57H89.3266V40.6992H98.643V42.3281H91.4477V47.8125H96.3461V49.4531H91.4477Z" fill="#070707"/>
</svg>
