<svg width="40" height="41" viewBox="0 0 40 41" fill="none" xmlns="http://www.w3.org/2000/svg">
<path d="M12.5 13.1996V11.5829C12.5 7.83294 15.5166 4.14961 19.2666 3.79961C20.3086 3.69724 21.3604 3.81416 22.3545 4.14284C23.3485 4.47152 24.2627 5.00469 25.0383 5.70802C25.8138 6.41135 26.4335 7.26927 26.8575 8.22656C27.2815 9.18385 27.5003 10.2193 27.5 11.2663V13.5663M15 37.0829H25C31.7 37.0829 32.9 34.3996 33.25 31.1329L34.5 21.1329C34.95 17.0663 33.7833 13.7496 26.6666 13.7496H13.3333C6.21662 13.7496 5.04996 17.0663 5.49996 21.1329L6.74996 31.1329C7.09996 34.3996 8.29996 37.0829 15 37.0829Z" stroke="#070707" stroke-width="1.5" stroke-miterlimit="10" stroke-linecap="round" stroke-linejoin="round"/>
<path d="M25.8251 20.4165H25.8418M14.1584 20.4165H14.1718" stroke="#070707" stroke-width="2" stroke-linecap="round" stroke-linejoin="round"/>
</svg>
